<svg width="24" height="24" viewBox="0 0 24 24" fill="none" xmlns="http://www.w3.org/2000/svg">
    <path
        d="M21.0312 3.68587H17.604V2.82391C17.604 2.50675 17.3419 2.25003 17.019 2.25003C16.6961 2.25003 16.434 2.50675 16.434 2.82391V3.68587H7.56603V2.82391C7.56603 2.50675 7.30394 2.25003 6.981 2.25003C6.65806 2.25003 6.39596 2.50675 6.39596 2.82391V3.68587H2.96884C1.74534 3.68587 0.75 4.66223 0.75 5.8624V19.5739C0.75 20.7741 1.74573 21.75 2.96884 21.75H21.0312C22.2547 21.75 23.25 20.7737 23.25 19.5739V5.8624C23.25 4.66262 22.2543 3.68587 21.0312 3.68587ZM22.0799 19.5739C22.0799 20.1409 21.6096 20.6023 21.0312 20.6023H2.96884C2.39043 20.6023 1.92007 20.1409 1.92007 19.5739V5.8624C1.92007 5.29503 2.39043 4.83363 2.96884 4.83363H6.39596V6.00358C6.39596 6.32074 6.65806 6.57746 6.981 6.57746C7.30394 6.57746 7.56603 6.32074 7.56603 6.00358V4.83363H16.4336V6.00358C16.4336 6.32074 16.6957 6.57746 17.0186 6.57746C17.3416 6.57746 17.6036 6.32074 17.6036 6.00358V4.83363H21.0308C21.6092 4.83363 22.0795 5.29503 22.0795 5.8624V19.5739H22.0799Z"
        fill="currentColor" />
    <path
        d="M6.24886 9.12216H3.94929C3.62635 9.12216 3.36426 9.37888 3.36426 9.69604V11.9521C3.36426 12.2693 3.62635 12.526 3.94929 12.526H6.24886C6.5718 12.526 6.8339 12.2693 6.8339 11.9521V9.69604C6.8339 9.37888 6.5718 9.12216 6.24886 9.12216ZM5.66383 11.3783H4.53432V10.2699H5.66383V11.3783Z"
        fill="currentColor" />
    <path
        d="M10.6407 9.12216H8.34114C8.0182 9.12216 7.7561 9.37888 7.7561 9.69604V11.9521C7.7561 12.2693 8.0182 12.526 8.34114 12.526H10.6407C10.9636 12.526 11.2257 12.2693 11.2257 11.9521V9.69604C11.2257 9.37888 10.9636 9.12216 10.6407 9.12216ZM10.0557 11.3783H8.92617V10.2699H10.0557V11.3783Z"
        fill="currentColor" />
    <path
        d="M15.3459 9.12216H13.046C12.723 9.12216 12.4609 9.37888 12.4609 9.69604V11.9521C12.4609 12.2693 12.723 12.526 13.046 12.526H15.3459C15.6689 12.526 15.931 12.2693 15.931 11.9521V9.69604C15.931 9.37888 15.6693 9.12216 15.3459 9.12216ZM14.7609 11.3783H13.631V10.2699H14.7609V11.3783Z"
        fill="currentColor" />
    <path
        d="M20.0512 9.12216H17.7508C17.4279 9.12216 17.1658 9.37888 17.1658 9.69604V11.9521C17.1658 12.2693 17.4279 12.526 17.7508 12.526H20.0508C20.3737 12.526 20.6358 12.2693 20.6358 11.9521V9.69604C20.6362 9.37888 20.3741 9.12216 20.0512 9.12216ZM19.4661 11.3783H18.3358V10.2699H19.4657V11.3783H19.4661Z"
        fill="currentColor" />
    <path
        d="M6.24886 14.6605H3.94929C3.62635 14.6605 3.36426 14.9172 3.36426 15.2343V17.4904C3.36426 17.8076 3.62635 18.0643 3.94929 18.0643H6.24886C6.5718 18.0643 6.8339 17.8076 6.8339 17.4904V15.2343C6.8339 14.9172 6.5718 14.6605 6.24886 14.6605ZM5.66383 16.9169H4.53432V15.8086H5.66383V16.9169Z"
        fill="currentColor" />
    <path
        d="M10.6407 14.6605H8.34114C8.0182 14.6605 7.7561 14.9172 7.7561 15.2343V17.4904C7.7561 17.8076 8.0182 18.0643 8.34114 18.0643H10.6407C10.9636 18.0643 11.2257 17.8076 11.2257 17.4904V15.2343C11.2257 14.9172 10.9636 14.6605 10.6407 14.6605ZM10.0557 16.9169H8.92617V15.8086H10.0557V16.9169Z"
        fill="currentColor" />
    <path
        d="M15.3459 14.6605H13.046C12.723 14.6605 12.4609 14.9172 12.4609 15.2343V17.4904C12.4609 17.8076 12.723 18.0643 13.046 18.0643H15.3459C15.6689 18.0643 15.931 17.8076 15.931 17.4904V15.2343C15.931 14.9172 15.6693 14.6605 15.3459 14.6605ZM14.7609 16.9169H13.631V15.8086H14.7609V16.9169Z"
        fill="currentColor" />
</svg>