<svg width="18" height="18" viewBox="0 0 18 18" fill="none" xmlns="http://www.w3.org/2000/svg">
<path d="M10.3696 9L17.6739 1.66304C18.0652 1.27174 18.0652 0.652174 17.6739 0.293478C17.2826 -0.0978261 16.663 -0.0978261 16.3043 0.293478L9 7.63043L1.66304 0.293478C1.27174 -0.0978261 0.652174 -0.0978261 0.293478 0.293478C-0.0978261 0.684783 -0.0978261 1.30435 0.293478 1.66304L7.59783 9L0.293478 16.337C-0.0978261 16.7283 -0.0978261 17.3478 0.293478 17.7065C0.48913 17.9022 0.75 18 0.978261 18C1.20652 18 1.46739 17.9022 1.66304 17.7065L9 10.3696L16.337 17.7065C16.5326 17.9022 16.7935 18 17.0217 18C17.25 18 17.5109 17.9022 17.7065 17.7065C18.0978 17.3152 18.0978 16.6957 17.7065 16.337L10.3696 9Z" fill="#4C5767"/>
</svg>
