<svg width="24" height="24" viewBox="0 0 24 24" fill="currentColor"
    xmlns="http://www.w3.org/2000/svg">
    <path
        d="M13.9465 14.4992C15.1286 13.7951 15.9293 12.4541 15.9293 10.9162C15.9293 8.65528 14.2004 6.80781 12.0655 6.80781C9.93063 6.80781 8.2017 8.65528 8.2017 10.9162C8.2017 12.4538 9.0024 13.7951 10.1845 14.4992C8.29612 15.0366 7.27636 16.3612 6.72892 17.5683C6.16519 18.8114 6.09928 19.9355 6.09793 19.9657L6.0946 20.04L6.16888 20.0439L6.7555 20.075L6.83074 20.079L6.83438 20.0037C6.83917 19.9049 6.9143 18.6562 7.60579 17.4344C8.29435 16.2179 9.59517 15.0245 12.0658 15.0245C14.5364 15.0245 15.8372 16.2179 16.5257 17.4344C17.2172 18.6562 17.2924 19.9049 17.2972 20.0037L17.3008 20.079L17.376 20.075L17.9627 20.0439L18.038 20.0399L18.0336 19.9645L18.0335 19.9643C18.0315 19.9308 17.9647 18.809 17.4021 17.5684C16.8546 16.3613 15.8349 15.0367 13.9465 14.4992ZM8.93882 10.9162C8.93882 9.0738 10.3457 7.58283 12.0653 7.58283C13.7849 7.58283 15.192 9.07355 15.192 10.9162C15.192 12.7585 13.7851 14.2495 12.0653 14.2495C10.3457 14.2495 8.93882 12.7585 8.93882 10.9162Z"
        fill="#083D77" stroke="#083D77" stroke-width="0.15" />
    <path
        d="M18.9881 11.6164C20.1702 10.9123 20.971 9.57126 20.971 8.03335C20.971 5.77247 19.242 3.925 17.1071 3.925C15.4402 3.925 14.0245 5.05406 13.4828 6.62306L13.4571 6.69749L13.5327 6.71954C13.7194 6.77398 13.9001 6.84243 14.0734 6.92562L14.1492 6.96197L14.1767 6.88258C14.6188 5.60814 15.7658 4.70028 17.1071 4.70028C18.8267 4.70028 20.2338 6.191 20.2338 8.03335C20.2338 9.87571 18.827 11.3667 17.1071 11.3667C16.8249 11.3667 16.5518 11.323 16.2905 11.2474L16.2111 11.2245L16.1959 11.3056C16.1873 11.3518 16.1794 11.3947 16.172 11.4356C16.1322 11.653 16.1026 11.8151 16.0143 12.1234L15.9818 12.237L16.0984 12.2181C16.4292 12.1643 16.72 12.142 17.1071 12.142C19.5777 12.142 20.8786 13.3353 21.5671 14.5519C22.2586 15.7736 22.3337 17.0224 22.3385 17.1212L22.3422 17.1964L22.4174 17.1925L23.004 17.1614L23.0787 17.1574L23.075 17.0827C23.0735 17.053 23.0076 15.9289 22.4438 14.6858C21.8963 13.4785 20.8765 12.1539 18.9881 11.6164Z"
        fill="#083D77" stroke="#083D77" stroke-width="0.15" />
    <path
        d="M3.0291 8.03335C3.0291 9.57126 3.82981 10.9123 5.01191 11.6164C3.12352 12.1539 2.10376 13.4785 1.55629 14.6858C0.992498 15.9289 0.926572 17.053 0.925092 17.0827L0.921382 17.1574L0.99603 17.1614L1.58265 17.1925L1.65789 17.1964L1.66153 17.1212C1.66632 17.0224 1.74145 15.7736 2.43294 14.5519C3.12149 13.3353 4.42232 12.142 6.89292 12.142C7.28006 12.142 7.57081 12.1643 7.90161 12.2181L8.01828 12.237L7.98574 12.1234C7.89743 11.8151 7.86781 11.653 7.82809 11.4356C7.82061 11.3947 7.81278 11.3518 7.80413 11.3056L7.78892 11.2245L7.70957 11.2474C7.44823 11.323 7.17518 11.3667 6.89292 11.3667C5.17334 11.3667 3.76647 9.87571 3.76647 8.03335C3.76647 6.19099 5.17333 4.70028 6.89292 4.70028C8.23428 4.70028 9.38121 5.60814 9.82331 6.88258L9.85085 6.96197L9.92661 6.92562C10.1 6.84243 10.2806 6.77398 10.4673 6.71954L10.5429 6.69749L10.5172 6.62306C9.97558 5.05406 8.55983 3.925 6.89292 3.925C4.75803 3.925 3.0291 5.77247 3.0291 8.03335Z"
        fill="#083D77" stroke="#083D77" stroke-width="0.15" />
</svg>