<svg xmlns="http://www.w3.org/2000/svg" width="30" height="13" viewBox="0 0 30 13" fill="none">
  <path d="M4.38688 10.5129L2.26556 8.3916C2.06783 8.19547 1.91324 7.9602 1.81169 7.70087C1.71015 7.44154 1.66389 7.16386 1.67587 6.88561C1.68785 6.60737 1.75781 6.33469 1.88128 6.08505C2.00474 5.83541 2.17898 5.6143 2.39284 5.43589C4.80515 3.49644 7.63876 2.14987 10.666 1.50438C13.4601 0.881535 16.3571 0.881535 19.1513 1.50438C22.191 2.15405 25.0349 3.51062 27.4527 5.46418C27.6659 5.64205 27.8397 5.86236 27.9631 6.11109C28.0865 6.35983 28.1568 6.63153 28.1694 6.9089C28.1821 7.18627 28.1368 7.46324 28.0365 7.72216C27.9363 7.98108 27.7832 8.21629 27.587 8.41281L25.4657 10.5341C25.1259 10.8807 24.6717 11.0918 24.1878 11.1283C23.7038 11.1647 23.2231 11.0239 22.8353 10.7321C22.0669 10.1428 21.2343 9.64228 20.3533 9.24013C20.0051 9.08217 19.7095 8.82771 19.5014 8.50688C19.2934 8.18605 19.1817 7.8123 19.1796 7.42993V5.63388C16.4027 4.87022 13.4711 4.87022 10.6943 5.63388V7.42993C10.6921 7.8123 10.5804 8.18605 10.3724 8.50688C10.1643 8.82771 9.8687 9.08217 9.52047 9.24013C8.63954 9.64228 7.80693 10.1428 7.03853 10.7321C6.64658 11.0272 6.15987 11.1678 5.67096 11.1274C5.18205 11.087 4.72505 10.8683 4.38688 10.5129Z" stroke="white" stroke-width="2" stroke-linecap="round" stroke-linejoin="round"/>
</svg>