<svg width="24" height="24" viewBox="0 0 24 24" fill="none" xmlns="http://www.w3.org/2000/svg">
    <mask id="path-2-outside-1_497_1565" maskUnits="userSpaceOnUse" x="1.25" y="2.75" width="21"
        height="18" fill="black">
        <rect fill="currentColor" x="1.25" y="2.75" width="21" height="18" />
        <path
            d="M21.5134 4.00336C21.5088 3.99851 21.5027 3.997 21.498 3.99244C21.352 3.84308 21.1551 3.75 20.9375 3.75H3.0625C2.84517 3.75 2.64859 3.84286 2.50264 3.99188C2.49788 3.99652 2.49163 3.99803 2.48705 4.00294C2.48251 4.00779 2.48112 4.01433 2.47683 4.01934C2.33708 4.17536 2.25 4.38581 2.25 4.61842V19.3816C2.25 19.6141 2.33698 19.8243 2.47658 19.9803C2.48087 19.9854 2.48228 19.992 2.48685 19.9969C2.49141 20.0017 2.49758 20.0032 2.50229 20.0078C2.64827 20.157 2.84499 20.25 3.0625 20.25H20.9375C21.1471 20.25 21.3365 20.1625 21.4808 20.0228C21.4883 20.0158 21.4979 20.0132 21.505 20.0055C21.5076 20.0028 21.5083 19.9991 21.5108 19.9963C21.6584 19.839 21.75 19.6216 21.75 19.3816V4.61842C21.75 4.3861 21.6631 4.17597 21.5237 4.01998C21.5194 4.01489 21.5179 4.00826 21.5134 4.00336ZM3.0625 5.23298L9.39119 12.0033L3.0625 18.7676V5.23298ZM13.7366 11.6939C13.7352 11.6953 13.7333 11.6958 13.7319 11.6972C13.7305 11.6987 13.7302 11.7008 13.7288 11.7023L11.9919 13.5571L3.63644 4.61842H20.3625L13.7366 11.6939ZM9.9654 12.6176L11.5624 14.326C11.6808 14.4526 11.8363 14.516 11.9919 14.516C12.1474 14.516 12.3029 14.4526 12.4213 14.326L14.0199 12.619L20.3468 19.3816H3.63696L9.9654 12.6176ZM14.5946 12.0053L20.9375 5.23184L20.9381 18.7855L14.5946 12.0053Z" />
    </mask>
    <path
        d="M21.5134 4.00336C21.5088 3.99851 21.5027 3.997 21.498 3.99244C21.352 3.84308 21.1551 3.75 20.9375 3.75H3.0625C2.84517 3.75 2.64859 3.84286 2.50264 3.99188C2.49788 3.99652 2.49163 3.99803 2.48705 4.00294C2.48251 4.00779 2.48112 4.01433 2.47683 4.01934C2.33708 4.17536 2.25 4.38581 2.25 4.61842V19.3816C2.25 19.6141 2.33698 19.8243 2.47658 19.9803C2.48087 19.9854 2.48228 19.992 2.48685 19.9969C2.49141 20.0017 2.49758 20.0032 2.50229 20.0078C2.64827 20.157 2.84499 20.25 3.0625 20.25H20.9375C21.1471 20.25 21.3365 20.1625 21.4808 20.0228C21.4883 20.0158 21.4979 20.0132 21.505 20.0055C21.5076 20.0028 21.5083 19.9991 21.5108 19.9963C21.6584 19.839 21.75 19.6216 21.75 19.3816V4.61842C21.75 4.3861 21.6631 4.17597 21.5237 4.01998C21.5194 4.01489 21.5179 4.00826 21.5134 4.00336ZM3.0625 5.23298L9.39119 12.0033L3.0625 18.7676V5.23298ZM13.7366 11.6939C13.7352 11.6953 13.7333 11.6958 13.7319 11.6972C13.7305 11.6987 13.7302 11.7008 13.7288 11.7023L11.9919 13.5571L3.63644 4.61842H20.3625L13.7366 11.6939ZM9.9654 12.6176L11.5624 14.326C11.6808 14.4526 11.8363 14.516 11.9919 14.516C12.1474 14.516 12.3029 14.4526 12.4213 14.326L14.0199 12.619L20.3468 19.3816H3.63696L9.9654 12.6176ZM14.5946 12.0053L20.9375 5.23184L20.9381 18.7855L14.5946 12.0053Z"
        fill="currentColor" />
    <path
        d="M21.5134 4.00336L21.4035 4.10554L21.4038 4.10584L21.5134 4.00336ZM21.498 3.99244L21.3907 4.09732L21.3934 4.09997L21.498 3.99244ZM2.50264 3.99188L2.60734 4.09936L2.60981 4.09684L2.50264 3.99188ZM2.48705 4.00294L2.37751 3.90046L2.37751 3.90046L2.48705 4.00294ZM2.47683 4.01934L2.58859 4.11945L2.59076 4.11691L2.47683 4.01934ZM2.47658 19.9803L2.5908 19.883L2.58837 19.8803L2.47658 19.9803ZM2.50229 20.0078L2.60955 19.9029L2.60691 19.9003L2.50229 20.0078ZM21.4808 20.0228L21.3789 19.9126L21.3764 19.915L21.4808 20.0228ZM21.505 20.0055L21.3955 19.9031L21.505 20.0055ZM21.5108 19.9963L21.4014 19.8936L21.3988 19.8965L21.5108 19.9963ZM21.5237 4.01998L21.4092 4.11702L21.4118 4.11995L21.5237 4.01998ZM3.0625 5.23298L3.17208 5.13055L2.9125 4.85285V5.23298H3.0625ZM9.39119 12.0033L9.50072 12.1058L9.59656 12.0034L9.50077 11.9009L9.39119 12.0033ZM3.0625 18.7676H2.9125V19.1475L3.17203 18.8701L3.0625 18.7676ZM13.7366 11.6939L13.8443 11.7983L13.8461 11.7964L13.7366 11.6939ZM13.7288 11.7023L13.8383 11.8048L13.8401 11.8028L13.7288 11.7023ZM11.9919 13.5571L11.8823 13.6595L11.9918 13.7766L12.1014 13.6596L11.9919 13.5571ZM3.63644 4.61842V4.46842H3.2909L3.52686 4.72085L3.63644 4.61842ZM20.3625 4.61842L20.472 4.72095L20.7085 4.46842H20.3625V4.61842ZM9.9654 12.6176L10.075 12.5151L9.96545 12.398L9.85587 12.5151L9.9654 12.6176ZM11.5624 14.326L11.4528 14.4285L11.4529 14.4285L11.5624 14.326ZM12.4213 14.326L12.3118 14.2235L12.3118 14.2236L12.4213 14.326ZM14.0199 12.619L14.1294 12.5165L14.0199 12.3995L13.9104 12.5165L14.0199 12.619ZM20.3468 19.3816V19.5316H20.6925L20.4563 19.2791L20.3468 19.3816ZM3.63696 19.3816L3.52743 19.2791L3.29121 19.5316H3.63696V19.3816ZM14.5946 12.0053L14.4851 11.9027L14.3891 12.0052L14.485 12.1078L14.5946 12.0053ZM20.9375 5.23184L21.0875 5.23183L21.0875 4.85223L20.828 5.12931L20.9375 5.23184ZM20.9381 18.7855L20.8285 18.888L21.0881 19.1654L21.0881 18.7855L20.9381 18.7855ZM21.6232 3.90118C21.613 3.89027 21.6031 3.88248 21.5955 3.87718C21.5884 3.87228 21.5821 3.8687 21.5808 3.86793C21.5795 3.86719 21.58 3.86744 21.5802 3.8676C21.5807 3.86789 21.5822 3.86876 21.5841 3.87004C21.5881 3.87263 21.595 3.8775 21.6026 3.88492L21.3934 4.09997C21.4034 4.10966 21.4128 4.11643 21.4194 4.12074C21.4226 4.12287 21.4254 4.12456 21.4272 4.12565C21.4288 4.12659 21.4306 4.12761 21.4307 4.12765C21.432 4.12844 21.4284 4.12643 21.424 4.12332C21.4189 4.11981 21.4114 4.11402 21.4035 4.10554L21.6232 3.90118ZM21.6053 3.88759C21.4339 3.7123 21.1995 3.6 20.9375 3.6V3.9C21.1108 3.9 21.2701 3.97385 21.3907 4.09729L21.6053 3.88759ZM20.9375 3.6H3.0625V3.9H20.9375V3.6ZM3.0625 3.6C2.80087 3.6 2.56673 3.71206 2.39548 3.88693L2.60981 4.09684C2.73044 3.97366 2.88946 3.9 3.0625 3.9V3.6ZM2.39797 3.88444C2.40563 3.87698 2.41257 3.87208 2.41657 3.86945C2.41854 3.86816 2.42002 3.86728 2.42054 3.86697C2.42084 3.8668 2.42125 3.86656 2.42 3.86728C2.41872 3.86801 2.41241 3.87159 2.40537 3.87646C2.39774 3.88174 2.38773 3.88953 2.37751 3.90046L2.59658 4.10542C2.58865 4.11389 2.58114 4.11965 2.57612 4.12313C2.5717 4.12619 2.5681 4.12818 2.56955 4.12734C2.56967 4.12728 2.57145 4.12626 2.57311 4.12528C2.57499 4.12417 2.57782 4.12246 2.58111 4.1203C2.58777 4.11594 2.59727 4.10911 2.60731 4.09933L2.39797 3.88444ZM2.37751 3.90046C2.36747 3.91119 2.36051 3.92144 2.35597 3.92892C2.35174 3.93587 2.34864 3.94209 2.34798 3.9434C2.34655 3.94623 2.34794 3.94339 2.34968 3.94038C2.35183 3.93664 2.35612 3.92968 2.3629 3.92177L2.59076 4.11691C2.59968 4.10649 2.60575 4.09684 2.60952 4.09032C2.6114 4.08705 2.61289 4.08425 2.61386 4.08237C2.61472 4.08072 2.61562 4.07894 2.61571 4.07876C2.6165 4.0772 2.61487 4.08056 2.61231 4.08476C2.60943 4.0895 2.60436 4.09711 2.59658 4.10542L2.37751 3.90046ZM2.3651 3.91926C2.20138 4.10204 2.1 4.34788 2.1 4.61842H2.4C2.4 4.42375 2.47278 4.24868 2.58856 4.11942L2.3651 3.91926ZM2.1 4.61842V19.3816H2.4V4.61842H2.1ZM2.1 19.3816C2.1 19.652 2.20128 19.8976 2.3648 20.0804L2.58837 19.8803C2.47269 19.751 2.4 19.5761 2.4 19.3816H2.1ZM2.3624 20.0776C2.35568 20.0697 2.35143 20.0628 2.34933 20.0592C2.34764 20.0562 2.34627 20.0534 2.34774 20.0563C2.34842 20.0577 2.35152 20.0639 2.35576 20.0709C2.36031 20.0784 2.36727 20.0886 2.37731 20.0993L2.59638 19.8944C2.60414 19.9027 2.60921 19.9103 2.61208 19.915C2.61464 19.9192 2.61626 19.9225 2.61549 19.921C2.61541 19.9208 2.61452 19.9191 2.61367 19.9174C2.61271 19.9156 2.61124 19.9128 2.60938 19.9096C2.60566 19.9031 2.59963 19.8935 2.59077 19.8831L2.3624 20.0776ZM2.37731 20.0993C2.38744 20.1102 2.39735 20.1179 2.40494 20.1232C2.41194 20.128 2.41821 20.1316 2.41952 20.1324C2.42078 20.1331 2.42036 20.1328 2.42009 20.1327C2.41958 20.1324 2.41811 20.1315 2.41616 20.1302C2.4122 20.1276 2.4053 20.1227 2.39768 20.1153L2.60691 19.9003C2.59693 19.8906 2.5875 19.8838 2.58091 19.8795C2.57765 19.8774 2.57485 19.8757 2.57299 19.8746C2.57137 19.8736 2.5696 19.8726 2.56951 19.8725C2.56811 19.8717 2.57169 19.8737 2.57611 19.8768C2.5811 19.8803 2.58854 19.886 2.59638 19.8944L2.37731 20.0993ZM2.39507 20.1127C2.56637 20.2878 2.80069 20.4 3.0625 20.4V20.1C2.8893 20.1 2.73016 20.0262 2.60952 19.9029L2.39507 20.1127ZM3.0625 20.4H20.9375V20.1H3.0625V20.4ZM20.9375 20.4C21.1905 20.4 21.4162 20.2941 21.5851 20.1305L21.3764 19.915C21.2568 20.0309 21.1037 20.1 20.9375 20.1V20.4ZM21.5826 20.1329C21.5763 20.1387 21.571 20.1424 21.5685 20.144C21.5669 20.145 21.565 20.1461 21.5689 20.1438C21.5733 20.1413 21.5946 20.1293 21.6146 20.108L21.3955 19.9031C21.4022 19.8958 21.4085 19.8909 21.4126 19.888C21.4162 19.8855 21.4189 19.884 21.4171 19.885C21.417 19.8851 21.4147 19.8864 21.4131 19.8874C21.4112 19.8886 21.4083 19.8903 21.405 19.8924C21.3984 19.8967 21.389 19.9034 21.3789 19.9126L21.5826 20.1329ZM21.6146 20.108C21.6245 20.0974 21.6312 20.0874 21.6354 20.0804C21.6375 20.0769 21.6391 20.0739 21.6401 20.0718C21.6412 20.0699 21.642 20.0682 21.6422 20.0678C21.6426 20.0671 21.6422 20.0678 21.6418 20.0686C21.6413 20.0695 21.6403 20.0715 21.6389 20.0739C21.636 20.0788 21.6308 20.087 21.6228 20.0961L21.3988 19.8965C21.3895 19.9069 21.3833 19.9167 21.3795 19.9231C21.3776 19.9264 21.3762 19.9291 21.3753 19.9309C21.3744 19.9325 21.3737 19.934 21.3737 19.934C21.3735 19.9345 21.3739 19.9336 21.3745 19.9325C21.3751 19.9312 21.3763 19.929 21.3779 19.9263C21.3812 19.9209 21.3868 19.9123 21.3955 19.9031L21.6146 20.108ZM21.6201 20.099C21.7937 19.9141 21.9 19.66 21.9 19.3816H21.6C21.6 19.5831 21.5232 19.7639 21.4014 19.8936L21.6201 20.099ZM21.9 19.3816V4.61842H21.6V19.3816H21.9ZM21.9 4.61842C21.9 4.34819 21.7988 4.10272 21.6355 3.92001L21.4118 4.11995C21.5274 4.24922 21.6 4.42402 21.6 4.61842H21.9ZM21.6381 3.92297C21.6447 3.9308 21.6489 3.93765 21.651 3.94127C21.6526 3.94417 21.654 3.94695 21.6525 3.94402C21.6518 3.94263 21.6487 3.93639 21.6445 3.9294C21.6399 3.92188 21.6329 3.91162 21.6229 3.90088L21.4038 4.10584C21.3961 4.09755 21.391 4.08995 21.3881 4.08522C21.3855 4.081 21.3839 4.07766 21.3847 4.07917C21.3848 4.07932 21.3857 4.0811 21.3865 4.08272C21.3875 4.08457 21.3889 4.08734 21.3908 4.09057C21.3945 4.09702 21.4005 4.10661 21.4093 4.11698L21.6381 3.92297ZM2.95292 5.33541L9.28161 12.1057L9.50077 11.9009L3.17208 5.13055L2.95292 5.33541ZM9.28165 11.9008L2.95297 18.6651L3.17203 18.8701L9.50072 12.1058L9.28165 11.9008ZM3.2125 18.7676V5.23298H2.9125V18.7676H3.2125ZM13.6289 11.5895C13.6379 11.5802 13.6463 11.574 13.6519 11.5702C13.6547 11.5684 13.6569 11.567 13.6582 11.5663C13.6593 11.5656 13.6603 11.5651 13.6597 11.5654C13.6596 11.5654 13.6581 11.5663 13.6564 11.5673C13.6545 11.5685 13.6517 11.5702 13.6483 11.5725C13.6415 11.5771 13.6321 11.5844 13.6224 11.5948L13.8415 11.7997C13.8324 11.8094 13.8237 11.816 13.8178 11.8201C13.8148 11.8221 13.8124 11.8236 13.8109 11.8245C13.8096 11.8253 13.8085 11.8259 13.8088 11.8257C13.8088 11.8257 13.8089 11.8257 13.809 11.8256C13.8091 11.8255 13.8093 11.8254 13.8096 11.8253C13.81 11.825 13.8107 11.8246 13.8116 11.8241C13.8132 11.8231 13.8159 11.8215 13.819 11.8194C13.8255 11.8151 13.8347 11.8082 13.8443 11.7983L13.6289 11.5895ZM13.6224 11.5948C13.6126 11.6052 13.6061 11.6151 13.602 11.6219C13.6001 11.6252 13.5985 11.6281 13.5976 11.6299C13.5967 11.6317 13.5959 11.6332 13.5959 11.6333C13.5956 11.6339 13.5961 11.6329 13.5966 11.6318C13.5972 11.6306 13.5984 11.6284 13.6 11.6256C13.6032 11.6201 13.6088 11.6113 13.6175 11.6018L13.8401 11.8028C13.8494 11.7925 13.8556 11.7828 13.8593 11.7765C13.8612 11.7733 13.8626 11.7706 13.8634 11.769C13.8639 11.7681 13.8642 11.7674 13.8644 11.767C13.8645 11.7668 13.8646 11.7666 13.8647 11.7664C13.8648 11.7663 13.8648 11.7662 13.8648 11.7662C13.865 11.7659 13.8645 11.7669 13.8638 11.7682C13.863 11.7697 13.8618 11.7721 13.86 11.775C13.8565 11.7809 13.8506 11.79 13.8415 11.7997L13.6224 11.5948ZM13.6193 11.5997L11.8824 13.4545L12.1014 13.6596L13.8383 11.8048L13.6193 11.5997ZM12.1014 13.4546L3.74602 4.51599L3.52686 4.72085L11.8823 13.6595L12.1014 13.4546ZM3.63644 4.76842H20.3625V4.46842H3.63644V4.76842ZM20.253 4.51589L13.6271 11.5913L13.8461 11.7964L20.472 4.72095L20.253 4.51589ZM9.85582 12.72L11.4528 14.4285L11.672 14.2236L10.075 12.5151L9.85582 12.72ZM11.4529 14.4285C11.5998 14.5855 11.795 14.666 11.9919 14.666V14.366C11.8777 14.366 11.7619 14.3197 11.6719 14.2236L11.4529 14.4285ZM11.9919 14.666C12.1888 14.666 12.384 14.5855 12.5309 14.4285L12.3118 14.2236C12.2218 14.3197 12.106 14.366 11.9919 14.366V14.666ZM12.5308 14.4286L14.1294 12.7215L13.9104 12.5165L12.3118 14.2235L12.5308 14.4286ZM13.9103 12.7215L20.2373 19.4841L20.4563 19.2791L14.1294 12.5165L13.9103 12.7215ZM20.3468 19.2316H3.63696V19.5316H20.3468V19.2316ZM3.7465 19.4841L10.0749 12.7201L9.85587 12.5151L3.52743 19.2791L3.7465 19.4841ZM14.7041 12.1078L21.047 5.33437L20.828 5.12931L14.4851 11.9027L14.7041 12.1078ZM20.7875 5.23184L20.7881 18.7856L21.0881 18.7855L21.0875 5.23183L20.7875 5.23184ZM21.0476 18.6831L14.7041 11.9028L14.485 12.1078L20.8285 18.888L21.0476 18.6831Z"
        fill="currentColor" mask="url(#path-2-outside-1_497_1565)" />
</svg>