<svg width="24" height="24" viewBox="0 0 24 24" fill="none" xmlns="http://www.w3.org/2000/svg">
    <g clip-path="url(#clip0_513_1650)">
        <path
            d="M22.3704 3.0858H1.58025C0.712413 3.0858 -0.05 3.861 -0.05 4.74026V19.4812C-0.05 20.4096 0.711433 21.1858 1.58025 21.1858H22.3704C23.2876 21.1858 24.05 20.4106 24.05 19.4812V4.74026C24.05 3.86 23.2866 3.0858 22.3704 3.0858ZM1.58025 4.18859H22.3704C22.5286 4.18859 22.6771 4.25758 22.7863 4.36265C22.8958 4.46799 22.9623 4.60603 22.9623 4.74026V19.4812C22.9623 19.8053 22.6877 20.083 22.3704 20.083H1.58025C1.44884 20.083 1.31322 20.0159 1.2094 19.9046C1.1059 19.7937 1.03765 19.6426 1.03765 19.4812V4.74026C1.03765 4.60584 1.10434 4.46742 1.20846 4.3617C1.31264 4.25593 1.44863 4.18859 1.58025 4.18859Z"
            fill="currentColor" stroke="white" stroke-width="0.1" />
        <path
            d="M6.17294 6.48276C5.7768 6.19046 5.33186 6.04399 4.83961 6.04399C3.5287 6.04399 2.41924 7.11866 2.41924 8.45054C2.41924 9.78242 3.5287 10.8571 4.83961 10.8571C5.33186 10.8571 5.7768 10.7106 6.17294 10.4183C6.56909 10.7106 7.01403 10.8571 7.50628 10.8571C8.81855 10.8571 9.87726 9.78106 9.87726 8.45054C9.87726 7.12002 8.81855 6.04399 7.50628 6.04399C7.01403 6.04399 6.56909 6.19046 6.17294 6.48276ZM7.2106 8.45054C7.2106 8.05273 7.06925 7.65783 6.8802 7.31194C7.05982 7.18993 7.28025 7.14678 7.50628 7.14678C8.21869 7.14678 8.78961 7.72535 8.78961 8.45054C8.78961 9.17573 8.21869 9.7543 7.50628 9.7543C7.28126 9.7543 7.06178 9.71153 6.88259 9.59076C7.07173 9.28771 7.2106 8.89276 7.2106 8.45054ZM3.50689 8.45054C3.50689 7.72769 4.12483 7.14678 4.83961 7.14678C5.50383 7.14678 6.12294 7.72654 6.12294 8.45054C6.12294 9.17454 5.50383 9.7543 4.83961 9.7543C4.12483 9.7543 3.50689 9.17339 3.50689 8.45054Z"
            fill="currentColor" stroke="white" stroke-width="0.1" />
        <path
            d="M20.6914 5.99388H17.5309C17.0621 5.99388 16.6414 6.36409 16.6414 6.84611V10.055C16.6414 10.5332 17.0581 10.9574 17.5309 10.9574H20.6914C21.168 10.9574 21.5315 10.5291 21.5315 10.055V6.84611C21.5315 6.36796 21.1642 5.99388 20.6914 5.99388ZM17.7291 9.85461V7.09667H20.4439V9.85461H17.7291Z"
            fill="currentColor" stroke="white" stroke-width="0.1" />
        <path
            d="M2.66606 15.7709C2.66606 16.1019 2.93793 16.3223 3.20989 16.3223H10.321C10.593 16.3223 10.8648 16.1019 10.8648 15.7709C10.8648 15.6296 10.7957 15.4922 10.6961 15.3911C10.5966 15.2901 10.461 15.2195 10.321 15.2195H3.20989C3.0699 15.2195 2.93429 15.2901 2.83476 15.3911C2.73518 15.4922 2.66606 15.6296 2.66606 15.7709Z"
            fill="currentColor" stroke="white" stroke-width="0.1" />
        <path
            d="M2.66606 17.8768C2.66606 18.2077 2.93793 18.4281 3.20989 18.4281H8.54323C8.81519 18.4281 9.08705 18.2077 9.08705 17.8768C9.08705 17.7354 9.01793 17.5981 8.91835 17.497C8.81882 17.3959 8.68321 17.3254 8.54323 17.3254H3.20989C3.0699 17.3254 2.93429 17.3959 2.83476 17.497C2.73518 17.5981 2.66606 17.7354 2.66606 17.8768Z"
            fill="currentColor" stroke="white" stroke-width="0.1" />
    </g>
    <defs>
        <clipPath id="clip0_513_1650">
            <rect width="24" height="24" fill="currentColor" />
        </clipPath>
    </defs>
</svg>