<svg width="24" height="24" viewBox="0 0 24 24" fill="none" xmlns="http://www.w3.org/2000/svg">
<path d="M14.2428 2.96755C14.1419 3.0066 14.0573 3.07853 14.0024 3.17171L5.84063 17.3084C5.78736 17.4024 5.76741 17.5118 5.78401 17.6186L6.24275 20.6636C6.25428 20.7344 6.28153 20.8017 6.3225 20.8606C6.36347 20.9195 6.41711 20.9684 6.47949 21.0039C6.54186 21.0393 6.61138 21.0603 6.68294 21.0653C6.7545 21.0703 6.82627 21.0592 6.89298 21.0329L9.75412 19.9168C9.85792 19.8787 9.94537 19.8059 10.0017 19.7108L18.1562 5.57604C18.1883 5.52125 18.2091 5.46065 18.2176 5.39774C18.226 5.33484 18.2219 5.27088 18.2055 5.20957C18.1891 5.14826 18.1606 5.09082 18.1219 5.04057C18.0831 4.99032 18.0347 4.94825 17.9796 4.91681L14.6544 2.99701C14.5923 2.9618 14.5231 2.94089 14.4519 2.9358C14.3807 2.9307 14.3092 2.94154 14.2428 2.96755ZM14.5924 4.06961L17.0889 5.50487L9.25067 19.0811L7.10711 19.9195L6.75608 17.6532L14.5924 4.06961Z" fill="#083D77"/>
</svg>
