<svg width="24" height="24" viewBox="0 0 24 24" fill="none" xmlns="http://www.w3.org/2000/svg">
    <path
        d="M21.9886 21.2324C21.6669 19.1142 20.7226 17.126 19.3417 15.5717C17.9929 14.0517 16.2145 12.9583 14.3028 12.4901C12.4463 12.0341 10.4634 12.1321 8.66431 12.8112C7.06052 13.4143 5.59689 14.4415 4.46413 15.7972C3.32677 17.1554 2.5065 18.8127 2.12968 20.59C2.08372 20.8033 2.04696 21.0166 2.01479 21.2299C1.98952 21.3966 1.98952 21.5511 2.07223 21.7031C2.14117 21.8305 2.27903 21.9507 2.41459 21.985C2.69031 22.0512 3.06943 21.8943 3.12228 21.556C3.18661 21.1294 3.27622 20.7053 3.39111 20.291C3.44855 20.085 3.51059 19.8815 3.57952 19.6805C3.61399 19.58 3.64845 19.4819 3.68751 19.3814C3.70589 19.3348 3.72427 19.2883 3.74036 19.2417C3.66913 19.428 3.73806 19.249 3.75644 19.2025C3.91958 18.8102 4.10339 18.4302 4.31019 18.0649C4.41128 17.886 4.51928 17.7095 4.62957 17.5354C4.68241 17.4545 4.73756 17.3736 4.7904 17.2927C4.81798 17.2535 4.84555 17.2118 4.87312 17.1726C4.88461 17.1579 4.94894 17.0696 4.88461 17.1554C4.82027 17.2437 4.8938 17.1431 4.90529 17.126C5.14884 16.7975 5.41078 16.4861 5.6888 16.1919C5.82896 16.0448 5.97142 15.9026 6.11847 15.7654C6.192 15.6967 6.26782 15.6281 6.34364 15.5619C6.37581 15.5349 6.40798 15.5055 6.44015 15.4785C6.46083 15.4614 6.4815 15.4442 6.49989 15.427C6.59869 15.3437 6.43555 15.4785 6.4815 15.4418C6.79399 15.1868 7.12026 14.9514 7.46032 14.7406C7.80727 14.5224 8.17031 14.3508 8.53334 14.162C8.52875 14.1645 8.39778 14.2233 8.48279 14.1841C8.50118 14.1767 8.52185 14.1669 8.54024 14.1596C8.58849 14.1375 8.63674 14.1179 8.68729 14.0983C8.78609 14.0566 8.88489 14.0198 8.98369 13.9806C9.1721 13.9095 9.36511 13.8458 9.55811 13.7869C9.94872 13.6693 10.3485 13.5786 10.7506 13.5148C10.7713 13.5124 10.7943 13.5075 10.815 13.505C10.9092 13.4903 10.7644 13.5124 10.7598 13.5124C10.8127 13.5075 10.8678 13.4977 10.9206 13.4903C11.0286 13.478 11.1366 13.4658 11.2469 13.4584C11.4836 13.4388 11.7202 13.429 11.9592 13.4266C12.2142 13.4266 12.4693 13.4339 12.7243 13.456C12.8369 13.4658 12.9518 13.4756 13.0644 13.4903C13.1195 13.4977 13.177 13.505 13.2321 13.5124C13.3171 13.5222 13.0828 13.4879 13.2091 13.5099C13.2459 13.5148 13.2827 13.5222 13.3194 13.5271C13.7836 13.6031 14.2408 13.7158 14.6912 13.8654C14.9117 13.9389 15.13 14.0198 15.346 14.1105C15.3965 14.1326 15.4471 14.1547 15.4976 14.1767C15.5735 14.2086 15.3644 14.1155 15.477 14.1669C15.4999 14.1767 15.5206 14.1865 15.5436 14.1988C15.6539 14.2503 15.7642 14.3042 15.8722 14.3606C16.2835 14.5739 16.6787 14.8166 17.0578 15.0912C17.1474 15.1549 17.2347 15.2211 17.322 15.2898C17.3703 15.3265 17.4185 15.3658 17.4668 15.4025C17.4852 15.4172 17.5035 15.4344 17.5242 15.4491C17.3909 15.3437 17.4966 15.427 17.5219 15.4467C17.6988 15.5962 17.8735 15.7531 18.0412 15.9174C18.3813 16.2483 18.6983 16.6062 18.9901 16.9862C19.0292 17.0377 19.066 17.0868 19.105 17.1382C19.1257 17.1652 19.1694 17.2289 19.082 17.1064C19.0958 17.1284 19.1119 17.148 19.1257 17.1677C19.1992 17.2706 19.2705 17.3785 19.3417 17.4839C19.475 17.6874 19.6013 17.8958 19.7208 18.1115C19.8403 18.3248 19.9529 18.5454 20.0563 18.7685C20.1068 18.8739 20.1528 18.9818 20.201 19.0897C20.2263 19.151 20.2516 19.2098 20.2768 19.2711C20.3205 19.3765 20.2608 19.2368 20.2631 19.2343C20.2585 19.2368 20.2998 19.3299 20.3067 19.3446C20.4859 19.8154 20.6307 20.2983 20.741 20.7911C20.7961 21.0411 20.8444 21.2936 20.8811 21.5486C20.9018 21.6908 21.0328 21.8453 21.1454 21.9139C21.2694 21.9899 21.451 22.0242 21.5888 21.9752C21.9105 21.8747 22.0415 21.5707 21.9886 21.2324Z"
        fill="currentColor" />
    <path
        d="M16.2284 7.73416C16.2284 7.87144 16.2238 8.00873 16.2123 8.14602C16.2077 8.20241 16.2031 8.25879 16.1962 8.31518C16.1916 8.35931 16.1686 8.48189 16.2008 8.28576C16.1939 8.32989 16.1893 8.37402 16.1824 8.41814C16.1433 8.6682 16.0859 8.91581 16.0124 9.15852C15.9779 9.27374 15.9366 9.38406 15.8975 9.49684C15.8561 9.61206 15.9549 9.3571 15.909 9.46987C15.8975 9.49929 15.8837 9.52871 15.8722 9.55812C15.8469 9.61696 15.8194 9.6758 15.7918 9.73464C15.6815 9.96509 15.5574 10.1857 15.415 10.3966C15.3851 10.4407 15.3529 10.4824 15.3254 10.5265C15.438 10.3549 15.3139 10.5388 15.284 10.578C15.2059 10.676 15.1255 10.7717 15.0428 10.8648C14.9669 10.9482 14.8865 11.0315 14.8038 11.11C14.7601 11.1541 14.7142 11.1958 14.6682 11.235C14.6315 11.2693 14.4591 11.3993 14.62 11.2791C14.4201 11.4262 14.2271 11.5758 14.0111 11.7008C13.9123 11.7572 13.8135 11.8111 13.7124 11.8601C13.6848 11.8749 13.6572 11.8871 13.6297 11.8994C13.5447 11.9386 13.6779 11.8773 13.6825 11.8749C13.6159 11.8994 13.5493 11.9312 13.4826 11.9582C13.2597 12.044 13.03 12.1127 12.7979 12.1617C12.7359 12.1739 12.6738 12.1862 12.6118 12.1985C12.5796 12.2034 12.5498 12.2083 12.5176 12.2132C12.6876 12.1813 12.6026 12.2009 12.5613 12.2058C12.428 12.223 12.297 12.2328 12.1638 12.2377C11.9179 12.2475 11.672 12.2328 11.4262 12.2034C11.3067 12.1887 11.5709 12.2279 11.4538 12.2083C11.4285 12.2034 11.4009 12.2009 11.3756 12.196C11.3182 12.1862 11.2631 12.1764 11.2056 12.1641C11.0838 12.1372 10.9621 12.1078 10.8426 12.071C10.7346 12.0391 10.6266 12.0023 10.5209 11.9607C10.4635 11.9386 10.406 11.9141 10.3486 11.8896C10.2406 11.8454 10.4795 11.9509 10.3739 11.9018C10.3371 11.8847 10.3003 11.8675 10.2636 11.8479C10.0522 11.7425 9.84998 11.6223 9.65468 11.4851C9.56277 11.4189 9.47546 11.3478 9.38355 11.2791C9.54439 11.3993 9.37206 11.2669 9.3353 11.235C9.28934 11.1933 9.24339 11.1516 9.19973 11.11C9.02511 10.9408 8.85968 10.7594 8.71033 10.5657C8.68046 10.5265 8.56787 10.3549 8.67816 10.5265C8.64369 10.4726 8.60693 10.4235 8.57017 10.3696C8.50124 10.2642 8.4346 10.1563 8.37257 10.046C8.31512 9.94302 8.26228 9.84005 8.21173 9.73464C8.18416 9.6758 8.15888 9.61696 8.13131 9.55812C8.12212 9.53851 8.11523 9.5189 8.10604 9.49929C8.044 9.34729 8.1405 9.5949 8.10374 9.49684C8.01643 9.26148 7.9429 9.02368 7.88775 8.77853C7.85789 8.64859 7.83491 8.51866 7.81423 8.38627C7.81193 8.36421 7.80734 8.34215 7.80504 8.32008C7.78666 8.19505 7.82112 8.47698 7.80963 8.3495C7.80274 8.27105 7.79355 8.1926 7.78895 8.1117C7.77057 7.84938 7.77287 7.58461 7.79125 7.32229C7.79585 7.25365 7.80274 7.18746 7.80963 7.11881C7.82112 6.99623 7.79125 7.24875 7.80274 7.16539C7.80734 7.13843 7.80963 7.10901 7.81423 7.08204C7.83491 6.94965 7.85789 6.81972 7.88775 6.68979C7.9452 6.43237 8.03251 6.18967 8.11523 5.93961C8.04859 6.13573 8.11293 5.94941 8.13131 5.90774C8.15658 5.8489 8.18416 5.79006 8.21173 5.73122C8.26687 5.616 8.32432 5.50323 8.38865 5.39291C8.44609 5.29239 8.50583 5.19188 8.57017 5.09627C8.60463 5.04479 8.64369 4.9933 8.67816 4.93937C8.56787 5.10853 8.68735 4.92956 8.71952 4.88788C8.87346 4.68931 9.04119 4.50544 9.22271 4.33383C9.25947 4.29706 9.29854 4.26273 9.3376 4.22841C9.37436 4.19654 9.54898 4.06416 9.38585 4.18428C9.48465 4.11074 9.58115 4.03229 9.68225 3.96119C9.87755 3.82635 10.082 3.70623 10.2934 3.60326C10.321 3.58855 10.3486 3.57629 10.3761 3.56404C10.4818 3.51255 10.2429 3.62042 10.3509 3.57629C10.4037 3.55423 10.4543 3.53217 10.5071 3.51255C10.6289 3.46597 10.7507 3.4243 10.8747 3.38752C10.985 3.35565 11.0953 3.32623 11.2079 3.30417C11.2585 3.29436 11.3113 3.28211 11.3619 3.27475C11.394 3.26985 11.4239 3.26495 11.4561 3.26004C11.5595 3.24288 11.2998 3.27965 11.4607 3.26004C11.7065 3.23062 11.9524 3.22082 12.1982 3.23062C12.3154 3.23553 12.4326 3.24533 12.5475 3.26004C12.5888 3.26495 12.7037 3.28946 12.5199 3.25514C12.5498 3.26004 12.5819 3.26495 12.6141 3.26985C12.6853 3.28211 12.7589 3.29682 12.8301 3.31153C13.0621 3.36301 13.2919 3.43165 13.5148 3.51991C13.5676 3.53952 13.6182 3.56404 13.671 3.5861C13.7423 3.61552 13.5309 3.51991 13.632 3.56894C13.6595 3.5812 13.6871 3.59591 13.7147 3.60817C13.825 3.6621 13.933 3.72094 14.041 3.78468C14.1375 3.84106 14.234 3.90235 14.3259 3.96855C14.3764 4.00287 14.427 4.03964 14.4752 4.07641C14.5005 4.09603 14.5235 4.11319 14.5488 4.1328C14.5648 4.14506 14.6728 4.23332 14.5878 4.16222C14.5051 4.09358 14.5878 4.16222 14.6016 4.17448C14.6246 4.19409 14.6476 4.21615 14.6705 4.23577C14.7165 4.27744 14.7624 4.31912 14.8061 4.3608C14.8957 4.4466 14.983 4.53731 15.0657 4.62802C15.1416 4.71382 15.2151 4.80208 15.2863 4.89034C15.3185 4.92956 15.4403 5.11588 15.3277 4.94182C15.3621 4.99575 15.3989 5.04478 15.4357 5.09872C15.5712 5.30465 15.6953 5.52284 15.801 5.74838C15.8263 5.80232 15.8492 5.85625 15.8745 5.91019C15.8883 5.93961 15.8998 5.96903 15.9113 5.99845C15.9595 6.11122 15.8584 5.85625 15.8998 5.97148C15.9457 6.09406 15.9871 6.21664 16.0262 6.34167C16.0997 6.58437 16.1548 6.83198 16.1916 7.08449C16.1962 7.11881 16.2008 7.15068 16.2054 7.18501C16.1732 6.99133 16.1962 7.11146 16.2008 7.15559C16.2077 7.21197 16.2123 7.26836 16.2169 7.32474C16.2238 7.45958 16.2284 7.59687 16.2284 7.73416C16.2284 8.05531 16.4926 8.36176 16.8028 8.34705C17.113 8.33234 17.3772 8.07738 17.3772 7.73416C17.3726 6.57211 17.0417 5.40026 16.4076 4.4515C15.7573 3.47823 14.8681 2.75012 13.8158 2.3358C11.7456 1.51943 9.28705 2.23038 7.88546 4.047C7.16169 4.98595 6.72972 6.11122 6.64011 7.32229C6.5528 8.48924 6.82622 9.69296 7.39605 10.6932C7.9452 11.6591 8.77007 12.4681 9.73739 12.9339C10.7966 13.4439 11.9593 13.591 13.1035 13.3483C15.2289 12.8947 16.9751 10.9678 17.3037 8.67801C17.3496 8.36421 17.3795 8.05041 17.3795 7.73416C17.3795 7.413 17.1153 7.10655 16.8051 7.12126C16.4903 7.13597 16.2284 7.39094 16.2284 7.73416Z"
        fill="currentColor" />
</svg>