<svg xmlns="http://www.w3.org/2000/svg" width="17" height="16" viewBox="0 0 17 16" fill="none">
  <path fill-rule="evenodd" clip-rule="evenodd" d="M11.6746 2.62647C11.4751 3.39655 10.6884 3.85927 9.91813 3.65959C9.14805 3.45991 8.68533 2.67351 8.88469 1.90279C9.08469 1.13287 9.87093 0.669993 10.6413 0.869673C11.4116 1.06935 11.8745 1.85623 11.6746 2.62647Z" fill="white"/>
  <path fill-rule="evenodd" clip-rule="evenodd" d="M7.845 14.6436C7.741 15.0441 7.3322 15.2844 6.93156 15.1809C6.53092 15.0769 6.29044 14.6683 6.39428 14.2673C6.49812 13.8665 6.90692 13.6265 7.30756 13.7302C7.7082 13.8337 7.94868 14.2428 7.845 14.6436Z" fill="white"/>
  <path fill-rule="evenodd" clip-rule="evenodd" d="M2.87884 5.71964C3.4646 5.87164 3.81612 6.46972 3.66444 7.055C3.51276 7.6406 2.915 7.99196 2.3294 7.84028C1.74396 7.6886 1.39228 7.09084 1.54412 6.50524C1.6958 5.92012 2.29356 5.56844 2.87884 5.71964Z" fill="white"/>
  <path fill-rule="evenodd" clip-rule="evenodd" d="M14.8963 9.54914C15.1121 9.60498 15.2417 9.82498 15.1855 10.0411C15.1297 10.2568 14.9095 10.3861 14.6939 10.3301C14.4782 10.2743 14.3487 10.0539 14.4046 9.8381C14.4607 9.62242 14.6807 9.4933 14.8963 9.54914Z" fill="white"/>
  <path fill-rule="evenodd" clip-rule="evenodd" d="M8.2977 1.93838C8.49338 2.64366 8.0793 3.37438 7.37402 3.56958C6.66842 3.76462 5.93802 3.35102 5.74266 2.6451C5.54746 1.9395 5.96122 1.20942 6.66682 1.01422C7.3721 0.818861 8.10282 1.23246 8.2977 1.93838Z" fill="white"/>
  <path fill-rule="evenodd" clip-rule="evenodd" d="M10.9904 14.2598C11.0837 14.5973 10.886 14.9466 10.5485 15.0402C10.2109 15.1335 9.86165 14.9359 9.76821 14.5981C9.67493 14.2606 9.87269 13.9114 10.2101 13.8181C10.5477 13.7246 10.897 13.9222 10.9904 14.2598Z" fill="white"/>
  <path fill-rule="evenodd" clip-rule="evenodd" d="M2.36976 9.09541C2.8912 8.95077 3.43104 9.25701 3.57536 9.77861C3.71968 10.3002 3.41376 10.8399 2.89232 10.984C2.37056 11.1287 1.83088 10.8228 1.68656 10.3013C1.5424 9.77925 1.848 9.23957 2.36976 9.09541Z" fill="white"/>
  <path fill-rule="evenodd" clip-rule="evenodd" d="M5.05987 3.08126C5.53635 3.54974 5.54259 4.31662 5.07379 4.79294C4.60515 5.26958 3.83875 5.27566 3.36195 4.80686C2.88547 4.33838 2.87923 3.5715 3.34819 3.09518C3.81699 2.61838 4.58323 2.61198 5.05987 3.08126Z" fill="white"/>
  <path fill-rule="evenodd" clip-rule="evenodd" d="M13.5526 12.4067C13.7567 12.6075 13.7594 12.9362 13.5585 13.14C13.3575 13.3443 13.029 13.3472 12.8249 13.1464C12.6206 12.9453 12.618 12.6166 12.819 12.4126C13.0199 12.2085 13.3482 12.2059 13.5526 12.4067Z" fill="white"/>
  <path fill-rule="evenodd" clip-rule="evenodd" d="M3.66768 12.2426C4.00256 11.9023 4.55008 11.8977 4.89024 12.2327C5.23056 12.5677 5.2352 13.1148 4.90032 13.4556C4.5656 13.7959 4.01808 13.8005 3.67776 13.4652C3.33728 13.1305 3.3328 12.5829 3.66768 12.2426Z" fill="white"/>
</svg>