<svg width="24" height="22" viewBox="0 0 24 22" fill="none" xmlns="http://www.w3.org/2000/svg">
    <path
        d="M23.075 5.47685C23.0759 4.27855 21.9206 3.32457 20.5289 3.32457H17.8834V2.2323C17.8834 1.50027 17.1834 0.925 16.35 0.925C15.5166 0.925 14.8165 1.49991 14.8165 2.2323V3.32457H9.06927V2.2323C9.06927 1.50027 8.36925 0.925 7.53582 0.925C6.7024 0.925 6.00236 1.49991 6.00236 2.2323V3.32457H3.47196C2.08022 3.32457 0.925 4.2782 0.925 5.4768V18.9228C0.925 20.1214 2.08022 21.075 3.47196 21.075H20.528C21.9198 21.075 23.075 20.1214 23.075 18.9228V5.47685ZM23.075 5.47685L23 5.4768H23.075V5.47685ZM14.9555 15.4201L14.9555 15.4201C15.0427 15.4759 15.1438 15.5022 15.2427 15.5022C15.3846 15.5022 15.5286 15.4481 15.6252 15.3402C15.7956 15.1506 15.7463 14.8806 15.5308 14.7428L12.4852 12.7932V9.54756C12.4852 9.30388 12.2558 9.1267 12.0008 9.1267C11.7458 9.1267 11.5165 9.30388 11.5165 9.54756V13.0062C11.5165 13.1433 11.5923 13.2678 11.7132 13.345L14.9555 15.4201ZM22.108 18.8478H22.1072V18.9228C22.1072 19.6335 21.412 20.2333 20.5289 20.2333H3.47278C2.58965 20.2333 1.89448 19.6335 1.89448 18.9228V5.4768C1.89448 4.76609 2.58965 4.16629 3.47278 4.16629H6.00318V5.25856C6.00318 5.99059 6.7032 6.56586 7.53664 6.56586C8.37005 6.56586 9.07009 5.99095 9.07009 5.25856V4.16629H14.8173V5.25856C14.8173 5.99059 15.5174 6.56586 16.3508 6.56586C17.1842 6.56586 17.8843 5.99095 17.8843 5.25856V4.16629H20.5297C21.4132 4.16629 22.108 4.76608 22.108 5.4768V18.8478ZM12.0008 7.22448C8.24763 7.22448 5.17183 9.80676 5.17183 13.0062C5.17183 16.2055 8.24763 18.7878 12.0008 18.7878C15.754 18.7878 18.8298 16.2055 18.8298 13.0062C18.8298 9.80676 15.754 7.22448 12.0008 7.22448ZM12.0008 17.9461C8.75728 17.9461 6.14049 15.7185 6.14049 13.0062C6.14049 10.2938 8.75728 8.0662 12.0008 8.0662C15.2444 8.0662 17.8611 10.2938 17.8611 13.0062C17.8611 15.7185 15.2444 17.9461 12.0008 17.9461ZM15.7856 2.2323C15.7856 1.98725 16.0267 1.76672 16.3504 1.76672C16.6742 1.76672 16.9152 1.98693 16.9152 2.2323V5.25856C16.9152 5.50361 16.6741 5.72414 16.3504 5.72414C16.0266 5.72414 15.7856 5.50392 15.7856 5.25856V2.2323ZM6.97144 2.2323C6.97144 1.98725 7.21249 1.76672 7.53623 1.76672C7.85999 1.76672 8.10101 1.98693 8.10101 2.2323V5.25856C8.10101 5.50361 7.85996 5.72414 7.53623 5.72414C7.21246 5.72414 6.97144 5.50392 6.97144 5.25856V2.2323Z"
        fill="currentColor" stroke="#4C5767" stroke-width="0.15" />
</svg>